<?xml version="1.0" encoding="utf-8" standalone="no"?>
<!DOCTYPE svg PUBLIC "-//W3C//DTD SVG 1.1//EN"
  "http://www.w3.org/Graphics/SVG/1.1/DTD/svg11.dtd">
<!-- Created with matplotlib (https://matplotlib.org/) -->
<svg height="288pt" version="1.1" viewBox="0 0 432 288" width="432pt" xmlns="http://www.w3.org/2000/svg" xmlns:xlink="http://www.w3.org/1999/xlink">
 <defs>
  <style type="text/css">
*{stroke-linecap:butt;stroke-linejoin:round;}
  </style>
 </defs>
 <g id="figure_1">
  <g id="patch_1">
   <path d="M 0 288 
L 432 288 
L 432 0 
L 0 0 
z
" style="fill:#ffffff;"/>
  </g>
  <g id="axes_1">
   <g id="LineCollection_1">
    <path clip-path="url(#p9b005329f8)" d="M 70.418726 152.169811 
L 102.13401 203.640082 
" style="fill:none;stroke:#000000;"/>
    <path clip-path="url(#p9b005329f8)" d="M 70.418726 152.169811 
L 137.281408 118.708806 
" style="fill:none;stroke:#000000;"/>
    <path clip-path="url(#p9b005329f8)" d="M 70.418726 152.169811 
L 69.338246 44.753592 
" style="fill:none;stroke:#000000;"/>
    <path clip-path="url(#p9b005329f8)" d="M 102.13401 203.640082 
L 241.13466 235.289503 
" style="fill:none;stroke:#000000;"/>
    <path clip-path="url(#p9b005329f8)" d="M 102.13401 203.640082 
L 69.338246 44.753592 
" style="fill:none;stroke:#000000;"/>
    <path clip-path="url(#p9b005329f8)" d="M 177.894767 122.864791 
L 233.444181 117.856296 
" style="fill:none;stroke:#000000;"/>
    <path clip-path="url(#p9b005329f8)" d="M 177.894767 122.864791 
L 241.13466 235.289503 
" style="fill:none;stroke:#000000;"/>
    <path clip-path="url(#p9b005329f8)" d="M 177.894767 122.864791 
L 137.281408 118.708806 
" style="fill:none;stroke:#000000;"/>
    <path clip-path="url(#p9b005329f8)" d="M 356.746084 138.63622 
L 373.461754 120.626953 
" style="fill:none;stroke:#000000;"/>
    <path clip-path="url(#p9b005329f8)" d="M 356.746084 138.63622 
L 361.322237 98.781393 
" style="fill:none;stroke:#000000;"/>
    <path clip-path="url(#p9b005329f8)" d="M 356.746084 138.63622 
L 241.13466 235.289503 
" style="fill:none;stroke:#000000;"/>
    <path clip-path="url(#p9b005329f8)" d="M 310.920995 192.770584 
L 340.475317 120.094134 
" style="fill:none;stroke:#000000;"/>
    <path clip-path="url(#p9b005329f8)" d="M 310.920995 192.770584 
L 241.13466 235.289503 
" style="fill:none;stroke:#000000;"/>
    <path clip-path="url(#p9b005329f8)" d="M 286.069941 122.225408 
L 233.444181 117.856296 
" style="fill:none;stroke:#000000;"/>
    <path clip-path="url(#p9b005329f8)" d="M 286.069941 122.225408 
L 340.475317 120.094134 
" style="fill:none;stroke:#000000;"/>
    <path clip-path="url(#p9b005329f8)" d="M 286.069941 122.225408 
L 69.338246 44.753592 
" style="fill:none;stroke:#000000;"/>
    <path clip-path="url(#p9b005329f8)" d="M 316.00561 99.84703 
L 373.461754 120.626953 
" style="fill:none;stroke:#000000;"/>
    <path clip-path="url(#p9b005329f8)" d="M 316.00561 99.84703 
L 361.322237 98.781393 
" style="fill:none;stroke:#000000;"/>
    <path clip-path="url(#p9b005329f8)" d="M 316.00561 99.84703 
L 137.281408 118.708806 
" style="fill:none;stroke:#000000;"/>
    <path clip-path="url(#p9b005329f8)" d="M 373.461754 120.626953 
L 340.475317 120.094134 
" style="fill:none;stroke:#000000;"/>
    <path clip-path="url(#p9b005329f8)" d="M 361.322237 98.781393 
L 340.475317 120.094134 
" style="fill:none;stroke:#000000;"/>
   </g>
   <g id="PathCollection_1">
    <defs>
     <path d="M 0 6.324555 
C 1.677292 6.324555 3.286112 5.65816 4.472136 4.472136 
C 5.65816 3.286112 6.324555 1.677292 6.324555 0 
C 6.324555 -1.677292 5.65816 -3.286112 4.472136 -4.472136 
C 3.286112 -5.65816 1.677292 -6.324555 0 -6.324555 
C -1.677292 -6.324555 -3.286112 -5.65816 -4.472136 -4.472136 
C -5.65816 -3.286112 -6.324555 -1.677292 -6.324555 0 
C -6.324555 1.677292 -5.65816 3.286112 -4.472136 4.472136 
C -3.286112 5.65816 -1.677292 6.324555 0 6.324555 
z
" id="m3cc7459930" style="stroke:#000000;"/>
    </defs>
    <g clip-path="url(#p9b005329f8)">
     <use style="fill:#0000ff;stroke:#000000;" x="70.418726" xlink:href="#m3cc7459930" y="152.169811"/>
     <use style="fill:#0000ff;stroke:#000000;" x="102.13401" xlink:href="#m3cc7459930" y="203.640082"/>
     <use style="fill:#0000ff;stroke:#000000;" x="177.894767" xlink:href="#m3cc7459930" y="122.864791"/>
     <use style="fill:#0000ff;stroke:#000000;" x="356.746084" xlink:href="#m3cc7459930" y="138.63622"/>
     <use style="fill:#0000ff;stroke:#000000;" x="286.069941" xlink:href="#m3cc7459930" y="122.225408"/>
     <use style="fill:#0000ff;stroke:#000000;" x="316.00561" xlink:href="#m3cc7459930" y="99.84703"/>
     <use style="fill:#0000ff;stroke:#000000;" x="373.461754" xlink:href="#m3cc7459930" y="120.626953"/>
     <use style="fill:#0000ff;stroke:#000000;" x="361.322237" xlink:href="#m3cc7459930" y="98.781393"/>
     <use style="fill:#0000ff;stroke:#000000;" x="137.281408" xlink:href="#m3cc7459930" y="118.708806"/>
     <use style="fill:#0000ff;stroke:#000000;" x="69.338246" xlink:href="#m3cc7459930" y="44.753592"/>
     <use style="fill:#0000ff;stroke:#000000;" x="310.920995" xlink:href="#m3cc7459930" y="192.770584"/>
     <use style="fill:#0000ff;stroke:#000000;" x="233.444181" xlink:href="#m3cc7459930" y="117.856296"/>
    </g>
   </g>
   <g id="PathCollection_2">
    <defs>
     <path d="M -7.071068 7.071068 
L 7.071068 7.071068 
L 7.071068 -7.071068 
L -7.071068 -7.071068 
z
" id="mfc9899d739" style="stroke:#000000;"/>
    </defs>
    <g clip-path="url(#p9b005329f8)">
     <use style="fill:#ff0000;stroke:#000000;" x="340.475317" xlink:href="#mfc9899d739" y="120.094134"/>
     <use style="fill:#ff0000;stroke:#000000;" x="241.13466" xlink:href="#mfc9899d739" y="235.289503"/>
    </g>
   </g>
   <g id="legend_1">
    <g id="patch_2">
     <path d="M 323.698438 71.91625 
L 381.8 71.91625 
Q 383.8 71.91625 383.8 69.91625 
L 383.8 41.56 
Q 383.8 39.56 381.8 39.56 
L 323.698438 39.56 
Q 321.698438 39.56 321.698438 41.56 
L 321.698438 69.91625 
Q 321.698438 71.91625 323.698438 71.91625 
z
" style="fill:#ffffff;opacity:0.8;stroke:#cccccc;stroke-linejoin:miter;"/>
    </g>
    <g id="PathCollection_3">
     <g>
      <use style="fill:#0000ff;stroke:#000000;" x="335.698438" xlink:href="#m3cc7459930" y="48.533437"/>
     </g>
    </g>
    <g id="text_1">
     <!-- Node -->
     <defs>
      <path d="M 9.8125 72.90625 
L 23.09375 72.90625 
L 55.421875 11.921875 
L 55.421875 72.90625 
L 64.984375 72.90625 
L 64.984375 0 
L 51.703125 0 
L 19.390625 60.984375 
L 19.390625 0 
L 9.8125 0 
z
" id="DejaVuSans-78"/>
      <path d="M 30.609375 48.390625 
Q 23.390625 48.390625 19.1875 42.75 
Q 14.984375 37.109375 14.984375 27.296875 
Q 14.984375 17.484375 19.15625 11.84375 
Q 23.34375 6.203125 30.609375 6.203125 
Q 37.796875 6.203125 41.984375 11.859375 
Q 46.1875 17.53125 46.1875 27.296875 
Q 46.1875 37.015625 41.984375 42.703125 
Q 37.796875 48.390625 30.609375 48.390625 
z
M 30.609375 56 
Q 42.328125 56 49.015625 48.375 
Q 55.71875 40.765625 55.71875 27.296875 
Q 55.71875 13.875 49.015625 6.21875 
Q 42.328125 -1.421875 30.609375 -1.421875 
Q 18.84375 -1.421875 12.171875 6.21875 
Q 5.515625 13.875 5.515625 27.296875 
Q 5.515625 40.765625 12.171875 48.375 
Q 18.84375 56 30.609375 56 
z
" id="DejaVuSans-111"/>
      <path d="M 45.40625 46.390625 
L 45.40625 75.984375 
L 54.390625 75.984375 
L 54.390625 0 
L 45.40625 0 
L 45.40625 8.203125 
Q 42.578125 3.328125 38.25 0.953125 
Q 33.9375 -1.421875 27.875 -1.421875 
Q 17.96875 -1.421875 11.734375 6.484375 
Q 5.515625 14.40625 5.515625 27.296875 
Q 5.515625 40.1875 11.734375 48.09375 
Q 17.96875 56 27.875 56 
Q 33.9375 56 38.25 53.625 
Q 42.578125 51.265625 45.40625 46.390625 
z
M 14.796875 27.296875 
Q 14.796875 17.390625 18.875 11.75 
Q 22.953125 6.109375 30.078125 6.109375 
Q 37.203125 6.109375 41.296875 11.75 
Q 45.40625 17.390625 45.40625 27.296875 
Q 45.40625 37.203125 41.296875 42.84375 
Q 37.203125 48.484375 30.078125 48.484375 
Q 22.953125 48.484375 18.875 42.84375 
Q 14.796875 37.203125 14.796875 27.296875 
z
" id="DejaVuSans-100"/>
      <path d="M 56.203125 29.59375 
L 56.203125 25.203125 
L 14.890625 25.203125 
Q 15.484375 15.921875 20.484375 11.0625 
Q 25.484375 6.203125 34.421875 6.203125 
Q 39.59375 6.203125 44.453125 7.46875 
Q 49.3125 8.734375 54.109375 11.28125 
L 54.109375 2.78125 
Q 49.265625 0.734375 44.1875 -0.34375 
Q 39.109375 -1.421875 33.890625 -1.421875 
Q 20.796875 -1.421875 13.15625 6.1875 
Q 5.515625 13.8125 5.515625 26.8125 
Q 5.515625 40.234375 12.765625 48.109375 
Q 20.015625 56 32.328125 56 
Q 43.359375 56 49.78125 48.890625 
Q 56.203125 41.796875 56.203125 29.59375 
z
M 47.21875 32.234375 
Q 47.125 39.59375 43.09375 43.984375 
Q 39.0625 48.390625 32.421875 48.390625 
Q 24.90625 48.390625 20.390625 44.140625 
Q 15.875 39.890625 15.1875 32.171875 
z
" id="DejaVuSans-101"/>
     </defs>
     <g transform="translate(353.698438 51.158437)scale(0.1 -0.1)">
      <use xlink:href="#DejaVuSans-78"/>
      <use x="74.804688" xlink:href="#DejaVuSans-111"/>
      <use x="135.986328" xlink:href="#DejaVuSans-100"/>
      <use x="199.462891" xlink:href="#DejaVuSans-101"/>
     </g>
    </g>
    <g id="PathCollection_4">
     <g>
      <use style="fill:#ff0000;stroke:#000000;" x="335.698438" xlink:href="#mfc9899d739" y="63.211562"/>
     </g>
    </g>
    <g id="text_2">
     <!-- DC -->
     <defs>
      <path d="M 19.671875 64.796875 
L 19.671875 8.109375 
L 31.59375 8.109375 
Q 46.6875 8.109375 53.6875 14.9375 
Q 60.6875 21.78125 60.6875 36.53125 
Q 60.6875 51.171875 53.6875 57.984375 
Q 46.6875 64.796875 31.59375 64.796875 
z
M 9.8125 72.90625 
L 30.078125 72.90625 
Q 51.265625 72.90625 61.171875 64.09375 
Q 71.09375 55.28125 71.09375 36.53125 
Q 71.09375 17.671875 61.125 8.828125 
Q 51.171875 0 30.078125 0 
L 9.8125 0 
z
" id="DejaVuSans-68"/>
      <path d="M 64.40625 67.28125 
L 64.40625 56.890625 
Q 59.421875 61.53125 53.78125 63.8125 
Q 48.140625 66.109375 41.796875 66.109375 
Q 29.296875 66.109375 22.65625 58.46875 
Q 16.015625 50.828125 16.015625 36.375 
Q 16.015625 21.96875 22.65625 14.328125 
Q 29.296875 6.6875 41.796875 6.6875 
Q 48.140625 6.6875 53.78125 8.984375 
Q 59.421875 11.28125 64.40625 15.921875 
L 64.40625 5.609375 
Q 59.234375 2.09375 53.4375 0.328125 
Q 47.65625 -1.421875 41.21875 -1.421875 
Q 24.65625 -1.421875 15.125 8.703125 
Q 5.609375 18.84375 5.609375 36.375 
Q 5.609375 53.953125 15.125 64.078125 
Q 24.65625 74.21875 41.21875 74.21875 
Q 47.75 74.21875 53.53125 72.484375 
Q 59.328125 70.75 64.40625 67.28125 
z
" id="DejaVuSans-67"/>
     </defs>
     <g transform="translate(353.698438 65.836562)scale(0.1 -0.1)">
      <use xlink:href="#DejaVuSans-68"/>
      <use x="77.001953" xlink:href="#DejaVuSans-67"/>
     </g>
    </g>
   </g>
  </g>
 </g>
 <defs>
  <clipPath id="p9b005329f8">
   <rect height="217.44" width="334.8" x="54" y="34.56"/>
  </clipPath>
 </defs>
</svg>
